<svg width="200" height="130" viewBox="0 0 200 130" fill="none" xmlns="http://www.w3.org/2000/svg">
<path fill-rule="evenodd" clip-rule="evenodd" d="M118.521 77.35C109.581 83.775 96.6223 87.2029 85.4654 87.2029C69.8216 87.2029 55.7382 81.5614 45.0834 72.1788C44.2465 71.4408 44.9965 70.4353 46.0009 71.01C57.4994 77.5329 71.7168 81.457 86.403 81.457C96.3076 81.457 107.203 79.459 117.222 75.3129C118.735 74.686 120.001 76.2792 118.521 77.35Z" fill="white"/>
<path fill-rule="evenodd" clip-rule="evenodd" d="M122.235 73.2033C121.097 71.7798 114.681 72.5307 111.801 72.8637C110.924 72.9682 110.79 72.2238 111.58 71.6884C116.69 68.1822 125.075 69.1942 126.052 70.3695C127.03 71.5513 125.798 79.7457 120.996 83.6568C120.26 84.2575 119.556 83.9376 119.884 83.1409C120.963 80.5162 123.38 74.6332 122.235 73.2033Z" fill="white"/>
<path fill-rule="evenodd" clip-rule="evenodd" d="M112.003 46.9362V43.5279C112.003 43.012 112.405 42.666 112.887 42.666H128.538C129.04 42.666 129.442 43.0185 129.442 43.5279V46.4464C129.435 46.9362 129.013 47.5761 128.263 48.5882L120.153 59.8774C123.167 59.8057 126.348 60.2431 129.08 61.7449C129.696 62.0844 129.864 62.5807 129.911 63.0703V66.7072C129.911 67.2034 129.348 67.7845 128.759 67.4842C123.944 65.0227 117.548 64.755 112.224 67.5103C111.682 67.7977 111.113 67.2231 111.113 66.7269V63.2728C111.113 62.7178 111.119 61.771 111.688 60.9288L121.084 47.7916H112.907C112.405 47.7916 112.003 47.4456 112.003 46.9362ZM54.9129 68.2024H50.1514C49.696 68.1699 49.3345 67.8369 49.3009 67.4124V43.5867C49.3009 43.11 49.7094 42.7312 50.2183 42.7312H54.6583C55.1205 42.7507 55.4888 43.097 55.5223 43.5278V46.6425H55.6094C56.7679 43.6325 58.9443 42.2287 61.8776 42.2287C64.8576 42.2287 66.7194 43.6325 68.0588 46.6425C69.2106 43.6325 71.8291 42.2287 74.6351 42.2287C76.6306 42.2287 78.8139 43.0318 80.1465 44.8339C81.6532 46.8384 81.3452 49.7505 81.3452 52.3035L81.3385 67.3407C81.3385 67.8174 80.93 68.2026 80.4211 68.2026H75.6663C75.1909 68.17 74.8091 67.7979 74.8091 67.3407V54.7128C74.8091 53.7072 74.9029 51.1998 74.6752 50.2467C74.3203 48.6469 73.2556 48.1963 71.8759 48.1963C70.724 48.1963 69.5186 48.9472 69.0297 50.1487C68.5409 51.3502 68.5879 53.3611 68.5879 54.7128V67.3405C68.5879 67.8172 68.1792 68.2024 67.6703 68.2024H62.9156C62.4334 68.1699 62.0583 67.7977 62.0583 67.3405L62.0517 54.7128C62.0517 52.0552 62.5003 48.1443 59.1185 48.1443C55.6965 48.1443 55.8303 51.9573 55.8303 54.7128V67.3405C55.8303 67.8172 55.4219 68.2024 54.9129 68.2024ZM142.916 42.2286C149.981 42.2286 153.805 48.1441 153.805 55.666C153.805 62.9332 149.579 68.6988 142.916 68.6988C135.978 68.6988 132.201 62.7831 132.201 55.4113C132.201 47.994 136.025 42.2286 142.916 42.2286ZM142.956 47.0929C139.447 47.0929 139.226 51.7549 139.226 54.6604C139.226 57.5727 139.179 63.7885 142.916 63.7885C146.606 63.7885 146.78 58.774 146.78 55.7182C146.78 53.7072 146.693 51.3043 146.07 49.3978C145.534 47.7393 144.47 47.0929 142.956 47.0929M162.966 68.2024H158.225C157.749 68.1699 157.368 67.7977 157.368 67.3405L157.361 43.5082C157.401 43.0709 157.796 42.7312 158.278 42.7312H162.692C163.107 42.7507 163.448 43.0252 163.542 43.3972V47.0407H163.629C164.962 43.7826 166.83 42.2286 170.118 42.2286C172.255 42.2286 174.337 42.9793 175.677 45.0361C176.922 46.9426 176.922 50.1487 176.922 52.4536V67.4515C176.869 67.8694 176.474 68.2024 176.005 68.2024H171.23C170.795 68.1699 170.433 67.8564 170.386 67.4515V54.5103C170.386 51.9051 170.694 48.0918 167.406 48.0918C166.248 48.0918 165.183 48.8493 164.654 49.9984C163.984 51.4546 163.897 52.9041 163.897 54.5104V67.3405C163.89 67.8172 163.475 68.2024 162.966 68.2024ZM99.5271 56.8218C99.5271 58.6303 99.574 60.1388 98.6363 61.7448C97.8797 63.0508 96.6743 63.8538 95.3416 63.8538C93.5134 63.8538 92.4419 62.4958 92.4419 60.4912C92.4419 56.5344 96.0783 55.8162 99.5271 55.8162V56.8218ZM104.329 68.1372C104.014 68.4114 103.559 68.431 103.204 68.2482C101.623 66.9684 101.335 66.3742 100.471 65.1532C97.8596 67.752 96.0046 68.529 92.6226 68.529C88.6112 68.529 85.4972 66.1195 85.4972 61.2945C85.4972 57.5269 87.5866 54.9609 90.5734 53.7072C93.1585 52.5972 96.768 52.4013 99.5272 52.0944V51.4938C99.5272 50.3902 99.6142 49.0843 98.9445 48.1311C98.3686 47.2758 97.2568 46.9231 96.2725 46.9231C94.4576 46.9231 92.8437 47.8306 92.4486 49.7112C92.3682 50.1291 92.0534 50.5404 91.6182 50.5601L87.004 50.0769C86.6157 49.992 86.1803 49.6851 86.2942 49.104C87.3523 43.6455 92.4151 42 96.9423 42C99.2594 42 102.286 42.6007 104.115 44.3115C106.432 46.4205 106.211 49.2345 106.211 52.2969V59.5314C106.211 61.7058 107.135 62.6589 108.005 63.8343C108.307 64.2522 108.374 64.755 107.985 65.0683C107.014 65.8584 105.286 67.3275 104.336 68.1502L104.329 68.1372M37.106 56.8218C37.106 58.6303 37.1529 60.1388 36.2152 61.7448C35.4586 63.0508 34.2599 63.8538 32.9205 63.8538C31.0923 63.8538 30.0274 62.4958 30.0274 60.4912C30.0274 56.5344 33.6639 55.8162 37.106 55.8162V56.8218ZM41.9076 68.1372C41.5929 68.4114 41.1376 68.431 40.7826 68.2482C39.2022 66.9684 38.9208 66.3742 38.0503 65.1532C35.4385 67.752 33.5903 68.529 30.2016 68.529C26.1969 68.529 23.0762 66.1195 23.0762 61.2945C23.0762 57.5269 25.1723 54.9609 28.1523 53.7072C30.7374 52.5972 34.3469 52.4013 37.106 52.0944V51.4938C37.106 50.3902 37.1931 49.0843 36.53 48.1311C35.9474 47.2758 34.8359 46.9231 33.858 46.9231C32.0432 46.9231 30.4226 47.8306 30.0274 49.7112C29.9471 50.1291 29.6323 50.5404 29.2037 50.5601L24.5829 50.0769C24.1945 49.992 23.766 49.6851 23.8731 49.104C24.9379 43.6455 29.994 42 34.5211 42C36.838 42 39.8651 42.6007 41.6934 44.3115C44.0103 46.4205 43.7894 49.2345 43.7894 52.2969V59.5314C43.7894 61.7058 44.7136 62.6589 45.5842 63.8343C45.8923 64.2522 45.9592 64.755 45.5708 65.0683C44.5997 65.8584 42.872 67.3275 41.9211 68.1502L41.9077 68.1372" fill="white"/>
</svg>
