<svg width="200" height="130" viewBox="0 0 200 130" fill="none" xmlns="http://www.w3.org/2000/svg">
<path d="M32.8223 78.5843H27.0252V64.4942H23.0762V59.9067H27.0251V56.6425C27.0251 52.7743 28.7717 50 34.5531 50C35.7759 50 37.6956 50.2403 37.6956 50.2403V54.5H35.6792C33.6248 54.5 32.8226 55.1093 32.8226 56.7938V59.9067H37.6186L37.1916 64.4942H32.8225L32.8223 78.5843ZM46.1239 59.5402C46.0394 59.5402 45.9525 59.5431 45.8665 59.5452C40.4911 59.5452 38.0317 63.4876 38.0317 69.0837C38.0317 76.1335 41.2219 78.955 45.9085 78.955C48.5899 78.955 50.3516 77.8546 51.4223 75.8011V78.5863H56.9362V59.9087H51.4223V62.7811C50.548 60.9331 48.7371 59.5621 46.1239 59.5402ZM47.5259 63.9536C49.7836 63.9536 51.1386 65.489 51.1386 68.1007L51.1439 70.7681C51.1439 72.5284 50.0246 74.5877 47.5259 74.5877C43.6843 74.5877 43.7869 70.5434 43.7869 69.1964C43.7869 64.6653 45.8337 63.9536 47.5259 63.9536ZM59.1629 69.2485C59.1629 66.9788 59.0516 59.5523 68.9752 59.5523C72.9588 59.5523 74.6222 60.7873 74.6222 60.7873L73.2852 64.8302C73.2852 64.8302 71.624 63.9383 69.4594 63.9383C66.6869 63.9383 64.9179 65.5054 64.9179 68.2625L64.9209 70.2395C64.9209 72.8888 66.6279 74.6573 69.4651 74.6573C71.4371 74.6573 73.2546 73.757 73.2546 73.757L74.5882 77.7155C74.5882 77.7155 73.0672 78.9583 69.0031 78.9583C59.5542 78.9583 59.1631 72.2952 59.1631 69.2485H59.1629ZM106.952 59.5452C112.327 59.5452 114.826 63.4876 114.826 69.0837C114.826 76.1335 111.635 78.955 106.949 78.955C104.267 78.955 102.285 77.8547 101.214 75.8011V78.5863L95.7699 78.5842V50.5679L101.55 50.0764V62.528C102.385 60.3496 105.127 59.5452 106.952 59.5452H106.952ZM105.331 63.9536C103.074 63.9536 101.55 65.489 101.55 68.1007L101.545 70.7681C101.542 72.5284 102.6 74.5877 105.331 74.5877C109.173 74.5877 109.07 70.5434 109.07 69.1964C109.07 64.6653 107.024 63.9536 105.331 63.9536ZM84.652 59.5607C78.5551 59.5607 75.3363 62.8018 75.3363 68.5615V69.6315C75.3363 77.1071 79.8565 79.0318 85.2454 79.0318C90.4834 79.0318 92.8543 77.6033 92.8543 77.6033L91.7726 73.7993C91.7726 73.7993 88.9837 74.9563 85.9385 74.9563C82.7816 74.9563 81.4239 74.1718 81.0759 71.2138H93.3165V68.162C93.3165 61.9142 89.704 59.5606 84.6519 59.5606L84.652 59.5607ZM84.7989 63.3698C86.9094 63.3698 88.2769 64.6316 88.2019 67.558H81.0865C81.2099 64.478 82.6846 63.37 84.7989 63.37V63.3698ZM126.352 59.5351C120.091 59.5351 116.795 62.9752 116.795 69.14C116.795 77.5985 122.476 78.9601 126.362 78.9601C132.051 78.9601 135.836 75.974 135.836 69.2168C135.836 62.1838 131.58 59.5351 126.352 59.5351ZM126.273 63.9689C129.026 63.9689 130.117 65.9779 130.117 68.2646V70.2307C130.117 73.0009 128.591 74.6032 126.263 74.6032C124.085 74.6032 122.555 73.1044 122.555 70.2307V68.2646C122.555 65.1998 124.376 63.9689 126.273 63.9689ZM147.352 59.5351C141.09 59.5351 137.794 62.9752 137.794 69.14C137.794 77.5985 143.476 78.9601 147.362 78.9601C153.05 78.9601 156.835 75.974 156.835 69.2168C156.835 62.1838 152.58 59.5351 147.352 59.5351ZM147.273 63.9689C150.026 63.9689 151.117 65.9779 151.117 68.2646V70.2307C151.117 73.0009 149.59 74.6032 147.262 74.6032C145.085 74.6032 143.555 73.1044 143.555 70.2307V68.2646C143.555 65.1998 145.376 63.9689 147.273 63.9689ZM159.02 78.5843V50.5679L164.817 50.0765V68.8549L170.569 59.9069H176.691L170.691 69.1744L176.922 78.5843H170.782L164.817 69.4472V78.5843H159.02Z" fill="white"/>
</svg>
