<svg width="32" height="32" viewBox="0 0 32 32" fill="none" xmlns="http://www.w3.org/2000/svg">
<rect width="32" height="32" rx="8" fill="#1E4C2F"/>
<path d="M24.3333 13.1V9.31663C24.3333 8.14163 23.8 7.66663 22.475 7.66663H19.1083C17.7833 7.66663 17.25 8.14163 17.25 9.31663V13.0916C17.25 14.275 17.7833 14.7416 19.1083 14.7416H22.475C23.8 14.75 24.3333 14.275 24.3333 13.1Z" fill="white"/>
<path d="M24.3333 22.475V19.1083C24.3333 17.7833 23.8 17.25 22.475 17.25H19.1083C17.7833 17.25 17.25 17.7833 17.25 19.1083V22.475C17.25 23.8 17.7833 24.3333 19.1083 24.3333H22.475C23.8 24.3333 24.3333 23.8 24.3333 22.475Z" fill="white"/>
<path d="M14.7498 13.1V9.31663C14.7498 8.14163 14.2165 7.66663 12.8915 7.66663H9.52484C8.19984 7.66663 7.6665 8.14163 7.6665 9.31663V13.0916C7.6665 14.275 8.19984 14.7416 9.52484 14.7416H12.8915C14.2165 14.75 14.7498 14.275 14.7498 13.1Z" fill="white"/>
<path d="M14.7498 22.475V19.1083C14.7498 17.7833 14.2165 17.25 12.8915 17.25H9.52484C8.19984 17.25 7.6665 17.7833 7.6665 19.1083V22.475C7.6665 23.8 8.19984 24.3333 9.52484 24.3333H12.8915C14.2165 24.3333 14.7498 23.8 14.7498 22.475Z" fill="white"/>
</svg>
