<svg width="28" height="28" viewBox="0 0 28 28" fill="none" xmlns="http://www.w3.org/2000/svg">
<path d="M14.0002 25.6666C20.4435 25.6666 25.6668 20.4432 25.6668 13.9999C25.6668 7.5566 20.4435 2.33325 14.0002 2.33325C7.55684 2.33325 2.3335 7.5566 2.3335 13.9999C2.3335 20.4432 7.55684 25.6666 14.0002 25.6666Z" stroke="#B7E08A" stroke-width="2" stroke-linecap="round" stroke-linejoin="round"/>
<path d="M9.33353 3.5H10.5002C8.2252 10.3133 8.2252 17.6867 10.5002 24.5H9.33353" stroke="#B7E08A" stroke-width="2" stroke-linecap="round" stroke-linejoin="round"/>
<path d="M17.5 3.5C19.775 10.3133 19.775 17.6867 17.5 24.5" stroke="#B7E08A" stroke-width="2" stroke-linecap="round" stroke-linejoin="round"/>
<path d="M3.5 18.6667V17.5C10.3133 19.775 17.6867 19.775 24.5 17.5V18.6667" stroke="#B7E08A" stroke-width="2" stroke-linecap="round" stroke-linejoin="round"/>
<path d="M3.5 10.5C10.3133 8.22495 17.6867 8.22495 24.5 10.5" stroke="#B7E08A" stroke-width="1.5" stroke-linecap="round" stroke-linejoin="round"/>
</svg>
