<svg width="200" height="130" viewBox="0 0 200 130" fill="none" xmlns="http://www.w3.org/2000/svg">
<path d="M88.6917 65.9852C88.6917 73.0891 83.0061 78.3238 76.0285 78.3238C69.0509 78.3238 63.3652 73.0891 63.3652 65.9852C63.3652 58.8312 69.0509 53.6465 76.0285 53.6465C83.0061 53.6465 88.6917 58.8312 88.6917 65.9852ZM83.1484 65.9852C83.1484 61.5459 79.8531 58.5085 76.0285 58.5085C72.2039 58.5085 68.9086 61.5459 68.9086 65.9852C68.9086 70.3799 72.2039 73.4618 76.0285 73.4618C79.8531 73.4618 83.1484 70.3743 83.1484 65.9852Z" fill="white"/>
<path d="M116.01 65.9852C116.01 73.0891 110.324 78.3238 103.347 78.3238C96.3693 78.3238 90.6836 73.0891 90.6836 65.9852C90.6836 58.8367 96.3693 53.6465 103.347 53.6465C110.324 53.6465 116.01 58.8312 116.01 65.9852ZM110.467 65.9852C110.467 61.5459 107.171 58.5085 103.347 58.5085C99.5223 58.5085 96.227 61.5459 96.227 65.9852C96.227 70.3799 99.5223 73.4618 103.347 73.4618C107.171 73.4618 110.467 70.3743 110.467 65.9852Z" fill="white"/>
<path d="M142.192 54.3919V76.5437C142.192 85.6558 136.694 89.3775 130.194 89.3775C124.076 89.3775 120.394 85.3777 119.005 82.1067L123.832 80.1429C124.691 82.1512 126.797 84.521 130.189 84.521C134.349 84.521 136.927 82.0121 136.927 77.2891V75.5145H136.734C135.493 77.011 133.103 78.3183 130.086 78.3183C123.775 78.3183 117.992 72.9444 117.992 66.0297C117.992 59.0648 123.775 53.6465 130.086 53.6465C133.097 53.6465 135.487 54.9538 136.734 56.4057H136.927V54.3975H142.192V54.3919ZM137.32 66.0297C137.32 61.685 134.355 58.5085 130.581 58.5085C126.757 58.5085 123.553 61.685 123.553 66.0297C123.553 70.3298 126.757 73.4618 130.581 73.4618C134.355 73.4618 137.32 70.3298 137.32 66.0297Z" fill="white"/>
<path d="M150.87 41.4062V77.5656H145.463V41.4062H150.87Z" fill="white"/>
<path d="M171.939 70.0458L176.242 72.8496C174.853 74.8578 171.506 78.318 165.724 78.318C158.553 78.318 153.197 72.8996 153.197 65.9793C153.197 58.6417 158.598 53.6406 165.104 53.6406C171.654 53.6406 174.859 58.7363 175.906 61.49L176.481 62.8918L159.606 69.7232C160.898 72.1987 162.907 73.4615 165.724 73.4615C168.547 73.4615 170.505 72.1041 171.939 70.0458ZM158.695 65.6066L169.975 61.0283C169.355 59.4873 167.488 58.4137 165.291 58.4137C162.474 58.4137 158.553 60.8447 158.695 65.6066Z" fill="white"/>
<path d="M42.8994 62.7748V57.5401H60.9467C61.1231 58.4524 61.2142 59.5316 61.2142 60.6998C61.2142 64.6273 60.1157 69.4838 56.5757 72.9439C53.1325 76.4486 48.733 78.3178 42.9051 78.3178C32.1029 78.3178 23.0195 69.7174 23.0195 59.1589C23.0195 48.6004 32.1029 40 42.9051 40C48.881 40 53.1382 42.2919 56.3367 45.2793L52.5576 48.9731C50.264 46.8703 47.1565 45.2348 42.8994 45.2348C35.0112 45.2348 28.8418 51.4486 28.8418 59.1589C28.8418 66.8692 35.0112 73.083 42.8994 73.083C48.0159 73.083 50.9299 71.0748 52.7967 69.2501C54.3106 67.7704 55.3066 65.6564 55.6993 62.7692L42.8994 62.7748Z" fill="white"/>
</svg>
