<svg width="200" height="130" viewBox="0 0 200 130" fill="none" xmlns="http://www.w3.org/2000/svg">
<path d="M44.2305 82.9254C41.9162 83.3216 39.5611 83.4404 37.125 83.7568L29.6944 62.5377V84.6675C27.3801 84.905 25.2688 85.2217 23.0762 85.5384V45H29.248L37.6934 68.0011V45H44.2305V82.9254ZM57.0206 59.8456C59.5382 59.8456 63.3954 59.7268 65.7097 59.7268V66.0608C62.8268 66.0608 59.4569 66.0608 57.0206 66.1796V75.6018C60.8374 75.3643 64.6541 75.0473 68.5113 74.9285V81.0248L50.5239 82.4106V45H68.5113V51.3341H57.0206V59.8456ZM92.6702 51.3343H85.9301V80.4712C83.7375 80.4712 81.5449 80.4712 79.4339 80.5501V51.3343H72.6938V45H92.6705L92.6702 51.3343ZM103.227 59.4103H112.119V65.7442H103.227V80.1149H96.8519V45H115.002V51.3341H103.227V59.4103ZM125.559 74.5724C129.254 74.6514 132.989 74.929 136.603 75.1266V81.3816C130.797 81.0251 124.991 80.6692 119.062 80.5501V45H125.559V74.5724ZM142.084 81.8171C144.155 81.936 146.348 82.0548 148.459 82.292V45H142.084V81.8171ZM176.922 45L168.68 64.2795L176.922 85.5384C174.486 85.2217 172.05 84.7862 169.613 84.3902L164.944 72.6724L160.194 83.4404C157.839 83.0442 155.565 82.9254 153.21 82.6087L161.575 64.0418L154.022 45H161.006L165.269 55.6493L169.817 45H176.922Z" fill="white"/>
</svg>
