<svg width="34" height="34" viewBox="0 0 34 34" fill="none" xmlns="http://www.w3.org/2000/svg">
<rect x="1" y="1" width="32" height="32" rx="8" stroke="#E4E9EE"/>
<path d="M11.5002 8.75H22.5002C23.4168 8.75 24.1668 9.5 24.1668 10.4167V12.25C24.1668 12.9167 23.7502 13.75 23.3335 14.1667L19.7502 17.3333C19.2502 17.75 18.9168 18.5833 18.9168 19.25V22.8333C18.9168 23.3333 18.5835 24 18.1668 24.25L17.0002 25C15.9168 25.6667 14.4168 24.9167 14.4168 23.5833V19.1667C14.4168 18.5833 14.0835 17.8333 13.7502 17.4167L10.5835 14.0833C10.1668 13.6667 9.8335 12.9167 9.8335 12.4167V10.5C9.8335 9.5 10.5835 8.75 11.5002 8.75Z" stroke="#0B0F0E" stroke-width="1.5" stroke-miterlimit="10" stroke-linecap="round" stroke-linejoin="round"/>
</svg>
