<svg width="26" height="26" viewBox="0 0 26 26" fill="none" xmlns="http://www.w3.org/2000/svg">
<path d="M10.8876 2.74081L4.36598 6.99831C2.27514 8.36331 2.27514 11.4183 4.36598 12.7833L10.8876 17.0408C12.0576 17.81 13.986 17.81 15.156 17.0408L21.6451 12.7833C23.7251 11.4183 23.7251 8.37414 21.6451 7.00914L15.156 2.75164C13.986 1.97164 12.0576 1.97164 10.8876 2.74081Z" stroke="#111111" stroke-width="2" stroke-linecap="round" stroke-linejoin="round"/>
<path d="M6.09921 14.17L6.08838 19.2508C6.08838 20.6266 7.15005 22.1 8.45005 22.5333L11.9059 23.6816C12.5017 23.8766 13.4875 23.8766 14.0942 23.6816L17.55 22.5333C18.85 22.1 19.9117 20.6266 19.9117 19.2508V14.2241" stroke="#111111" stroke-width="2" stroke-linecap="round" stroke-linejoin="round"/>
<path d="M23.1831 16.25V9.75" stroke="#111111" stroke-width="2" stroke-linecap="round" stroke-linejoin="round"/>
</svg>
