<svg width="200" height="130" viewBox="0 0 200 130" fill="none" xmlns="http://www.w3.org/2000/svg">
<path d="M71.0894 53.2362C70.5241 51.189 68.8686 49.5748 66.7688 49.0236C62.9328 48 47.5885 48 47.5885 48C47.5885 48 32.2443 48 28.4082 48.9843C26.3489 49.5354 24.6529 51.189 24.0876 53.2362C23.0781 56.9764 23.0781 64.7323 23.0781 64.7323C23.0781 64.7323 23.0781 72.5276 24.0876 76.2283C24.6529 78.2756 26.3085 79.8898 28.4082 80.4409C32.2847 81.4646 47.5885 81.4646 47.5885 81.4646C47.5885 81.4646 62.9328 81.4646 66.7688 80.4803C68.8686 79.9291 70.5241 78.315 71.0894 76.2677C72.0989 72.5276 72.0989 64.7717 72.0989 64.7717C72.0989 64.7717 72.1393 56.9764 71.0894 53.2362Z" fill="white"/>
<path d="M42.7031 57.5664V71.8971L55.4631 64.7318L42.7031 57.5664Z" fill="#5A48C3"/>
<path d="M94.2666 78.4726C93.2975 77.8427 92.6111 76.8585 92.2073 75.4805C91.8035 74.1419 91.6016 72.3309 91.6016 70.1262V67.0947C91.6016 64.8506 91.8438 63.0396 92.288 61.6616C92.7726 60.2837 93.4994 59.2994 94.4685 58.6695C95.478 58.0396 96.7701 57.7246 98.3853 57.7246C99.9601 57.7246 101.252 58.0396 102.221 58.6695C103.191 59.2994 103.877 60.323 104.321 61.6616C104.765 63.0002 105.008 64.8112 105.008 67.0947V70.1262C105.008 72.3703 104.806 74.1419 104.362 75.5199C103.917 76.8585 103.231 77.8821 102.262 78.512C101.293 79.1419 99.9601 79.4569 98.3046 79.4569C96.6086 79.4175 95.2357 79.1026 94.2666 78.4726ZM99.7179 75.1656C100.001 74.4963 100.122 73.3545 100.122 71.8191V65.2837C100.122 63.7876 100.001 62.6852 99.7179 61.9766C99.4352 61.2679 98.991 60.953 98.3046 60.953C97.6585 60.953 97.1739 61.3073 96.9317 61.9766C96.649 62.6852 96.5279 63.7876 96.5279 65.2837V71.8191C96.5279 73.3545 96.649 74.4963 96.9317 75.1656C97.1739 75.8348 97.6585 76.1892 98.3449 76.1892C98.991 76.1892 99.4352 75.8742 99.7179 75.1656Z" fill="white"/>
<path d="M168.809 70.1642V71.2272C168.809 72.5658 168.849 73.5894 168.93 74.2587C169.011 74.928 169.172 75.4398 169.455 75.7154C169.697 76.0304 170.101 76.1878 170.666 76.1878C171.393 76.1878 171.878 75.9122 172.161 75.3611C172.443 74.8099 172.564 73.9044 172.605 72.6052L176.764 72.8414C176.804 73.0382 176.804 73.2745 176.804 73.5894C176.804 75.5185 176.279 76.9752 175.189 77.9201C174.099 78.865 172.564 79.3374 170.586 79.3374C168.203 79.3374 166.548 78.5894 165.579 77.1327C164.61 75.676 164.125 73.4319 164.125 70.3611V66.6996C164.125 63.55 164.61 61.2666 165.619 59.8099C166.629 58.3532 168.324 57.6445 170.707 57.6445C172.362 57.6445 173.655 57.9595 174.543 58.55C175.431 59.1406 176.037 60.0855 176.4 61.3059C176.764 62.5658 176.925 64.2981 176.925 66.5028V70.0855H168.809V70.1642ZM169.415 61.3453C169.172 61.6603 169.011 62.1327 168.93 62.802C168.849 63.4713 168.809 64.4949 168.809 65.8729V67.3689H172.362V65.8729C172.362 64.5343 172.322 63.5107 172.241 62.802C172.161 62.0933 171.959 61.6209 171.716 61.3453C171.474 61.0697 171.07 60.9122 170.586 60.9122C170.02 60.8729 169.657 61.0304 169.415 61.3453Z" fill="white"/>
<path d="M82.476 69.7708L76.9844 50.3613H81.7895L83.7278 59.1409C84.2123 61.3062 84.5757 63.1566 84.818 64.692H84.9391C85.1007 63.5897 85.4641 61.7787 86.0294 59.1802L88.0484 50.3613H92.8535L87.2812 69.7708V79.0621H82.5164V69.7708H82.476Z" fill="white"/>
<path d="M120.635 58.1172V79.1014H116.839L116.436 76.5424H116.314C115.305 78.4715 113.73 79.4558 111.671 79.4558C110.258 79.4558 109.208 78.9833 108.521 78.0778C107.835 77.1723 107.512 75.755 107.512 73.7865V58.1172H112.357V73.5109C112.357 74.4558 112.478 75.1251 112.68 75.5188C112.882 75.9125 113.246 76.1093 113.73 76.1093C114.134 76.1093 114.538 75.9912 114.942 75.7156C115.345 75.4794 115.628 75.1644 115.79 74.7707V58.1172H120.635Z" fill="white"/>
<path d="M145.467 58.1172V79.1014H141.671L141.268 76.5424H141.146C140.137 78.4715 138.562 79.4558 136.503 79.4558C135.09 79.4558 134.04 78.9833 133.353 78.0778C132.667 77.1723 132.344 75.755 132.344 73.7865V58.1172H137.189V73.5109C137.189 74.4558 137.31 75.1251 137.512 75.5188C137.714 75.9125 138.078 76.1093 138.562 76.1093C138.966 76.1093 139.37 75.9912 139.774 75.7156C140.177 75.4794 140.46 75.1644 140.622 74.7707V58.1172H145.467Z" fill="white"/>
<path d="M133.8 54.1802H128.994V79.0621H124.27V54.1802H119.465V50.3613H133.8V54.1802Z" fill="white"/>
<path d="M161.498 61.4642C161.216 60.1256 160.731 59.1807 160.085 58.5902C159.439 57.9996 158.51 57.6847 157.38 57.6847C156.491 57.6847 155.643 57.9209 154.876 58.4327C154.109 58.9051 153.503 59.5744 153.099 60.3618H153.059V49.2988H148.375V79.0626H152.373L152.857 77.0941H152.978C153.342 77.8028 153.907 78.3539 154.674 78.787C155.441 79.1807 156.249 79.4169 157.178 79.4169C158.833 79.4169 160.004 78.6689 160.772 77.2122C161.539 75.7555 161.943 73.4327 161.943 70.3225V67.0154C161.902 64.6138 161.781 62.7634 161.498 61.4642ZM157.057 70.0075C157.057 71.5429 156.976 72.724 156.855 73.5902C156.734 74.4563 156.491 75.0862 156.209 75.4406C155.886 75.7949 155.482 75.9917 154.997 75.9917C154.593 75.9917 154.23 75.913 153.907 75.7162C153.584 75.5193 153.301 75.2437 153.099 74.8894V62.9996C153.261 62.4484 153.544 61.976 153.947 61.5823C154.351 61.228 154.795 61.0311 155.24 61.0311C155.724 61.0311 156.128 61.228 156.37 61.5823C156.653 61.976 156.814 62.6059 156.935 63.4721C157.057 64.3776 157.097 65.6374 157.097 67.2516V70.0075H157.057Z" fill="white"/>
</svg>
